HIERARCHY
ROOT Hips
{
	OFFSET 0.000000 0.000000 0.000000
	CHANNELS 6 Xposition Yposition Zposition Zrotation Yrotation Xrotation 
	JOINT LeftUpLeg_virtual
	{
		OFFSET 0.000000 0.000000 0.000000
		CHANNELS 3 Zrotation Yrotation Xrotation
		JOINT LeftUpLeg
		{
			OFFSET 8.479694 -4.795517 -0.379053
			CHANNELS 3 Zrotation Yrotation Xrotation
			JOINT LeftLeg
			{
				OFFSET 0.485052 -32.551468 0.112863
				CHANNELS 3 Zrotation Yrotation Xrotation
				JOINT LeftFoot
				{
					OFFSET 0.438033 -32.635670 -3.012641
					CHANNELS 3 Zrotation Yrotation Xrotation
					JOINT LeftToeBase
					{
						OFFSET 0.970169 -13.225353 11.864223
						CHANNELS 3 Zrotation Yrotation Xrotation
						End Site
						{
							OFFSET 0.000000 0.000000 0.000000
						}
					}
				}
			}
		}
	}
	JOINT RightUpLeg_virtual
	{
		OFFSET 0.000000 0.000000 0.000000
		CHANNELS 3 Zrotation Yrotation Xrotation
		JOINT RightUpLeg
		{
			OFFSET -8.479694 -4.795517 -0.379053
			CHANNELS 3 Zrotation Yrotation Xrotation
			JOINT RightLeg
			{
				OFFSET -0.484100 -32.551483 0.112903
				CHANNELS 3 Zrotation Yrotation Xrotation
				JOINT RightFoot
				{
					OFFSET -0.438985 -32.635651 -3.012681
					CHANNELS 3 Zrotation Yrotation Xrotation
					JOINT RightToeBase
					{
						OFFSET -0.970169 -13.225354 11.864223
						CHANNELS 3 Zrotation Yrotation Xrotation
						End Site
						{
							OFFSET 0.000000 0.000000 0.000000
						}
					}
				}
			}
		}
	}
	JOINT Spine_virtual
	{
		OFFSET 0.000000 0.000000 0.000000
		CHANNELS 3 Zrotation Yrotation Xrotation
		JOINT Spine
		{
			OFFSET 0.000000 7.722015 1.166203
			CHANNELS 3 Zrotation Yrotation Xrotation
			JOINT Spine1
			{
				OFFSET 0.000000 12.024086 0.248766
				CHANNELS 3 Zrotation Yrotation Xrotation
				JOINT Spine2
				{
					OFFSET -0.000000 11.503036 -0.491240
					CHANNELS 3 Zrotation Yrotation Xrotation
					JOINT Neck_virtual
					{
						OFFSET 0.000000 0.000000 0.000000
						CHANNELS 3 Zrotation Yrotation Xrotation
						JOINT Neck
						{
							OFFSET 0.000000 18.430687 -3.123054
							CHANNELS 3 Zrotation Yrotation Xrotation
							JOINT Head
							{
								OFFSET -0.000000 9.051071 1.034021
								CHANNELS 3 Zrotation Yrotation Xrotation
								End Site
								{
									OFFSET 0.000000 0.000000 0.000000
								}
							}
						}
					}
					JOINT LeftShoulder_virtual
					{
						OFFSET 0.000000 0.000000 0.000000
						CHANNELS 3 Zrotation Yrotation Xrotation
						JOINT LeftShoulder
						{
							OFFSET 6.197824 13.665230 -4.064723
							CHANNELS 3 Zrotation Yrotation Xrotation
							JOINT LeftArm
							{
								OFFSET 7.778132 -0.187073 -1.709282
								CHANNELS 3 Zrotation Yrotation Xrotation
								JOINT LeftForeArm
								{
									OFFSET 21.954697 0.000000 -2.041093
									CHANNELS 3 Zrotation Yrotation Xrotation
									JOINT LeftHand
									{
										OFFSET 22.992908 0.000000 -0.870901
										CHANNELS 3 Zrotation Yrotation Xrotation
										End Site
										{
											OFFSET 0.000000 0.000000 0.000000
										}
									}
								}
							}
						}
					}
					JOINT RightShoulder_virtual
					{
						OFFSET 0.000000 0.000000 0.000000
						CHANNELS 3 Zrotation Yrotation Xrotation
						JOINT RightShoulder
						{
							OFFSET -6.197824 13.665230 -4.064723
							CHANNELS 3 Zrotation Yrotation Xrotation
							JOINT RightArm
							{
								OFFSET -7.778132 -0.187073 -1.709282
								CHANNELS 3 Zrotation Yrotation Xrotation
								JOINT RightForeArm
								{
									OFFSET -21.954697 0.000000 -2.041093
									CHANNELS 3 Zrotation Yrotation Xrotation
									JOINT RightHand
									{
										OFFSET -22.992908 0.000000 -0.870901
										CHANNELS 3 Zrotation Yrotation Xrotation
										End Site
										{
											OFFSET 0.000000 0.000000 0.000000
										}
									}
								}
							}
						}
					}
				}
			}
		}
	}
}
MOTION
Frames: 10
Frame Time: 0.033333
-7.561817 60.903683 14.956745 -179.987670 -5.597727 179.999623 2.013642 -6.068604 -2.493002 -4.061420 5.841541 -84.130978 9.940837 2.583709 71.898519 -3.410189 -10.413938 -4.795948 0.000000 0.000000 0.000000 0.909617 -1.509820 1.494878 6.182406 -14.453522 -75.247634 0.857312 1.407417 84.621529 2.594437 5.980316 -11.903530 0.000000 0.000000 0.000000 2.853168 0.387871 -10.586136 1.207404 0.677534 -1.322287 -0.084005 -2.848624 7.676307 -0.015668 0.003283 0.023282 -0.665602 -2.035291 10.878827 0.189036 -3.482025 4.808679 0.000000 0.000000 0.000000 1.498853 -1.576710 6.729122 -9.587185 -4.642821 -0.275084 -54.093664 -37.253501 -3.525069 145.421366 -79.629310 -130.456108 0.000000 0.000000 0.000000 -2.774855 0.008065 5.967626 28.778603 6.278359 4.971036 42.032752 29.428826 -13.841821 -175.085534 55.844542 173.389570 0.000000 0.000000 0.000000 
-7.526492 60.856720 14.678840 -179.973272 -5.793605 179.961961 2.052394 -6.311599 -2.089022 -3.251217 6.348203 -83.135765 9.393955 2.097484 74.521448 -3.469089 -10.208820 -5.328829 0.000000 0.000000 0.000000 0.937111 -1.833664 1.935286 5.217352 -15.235903 -75.866114 1.189015 1.624144 85.910147 2.492657 6.342129 -12.530718 0.000000 0.000000 0.000000 2.801711 0.226745 -10.654678 1.006579 0.841779 -1.485923 -0.109347 -2.862475 7.622390 -0.019065 -0.003429 -0.073473 -0.693241 -2.124821 10.899910 0.191711 -3.629779 4.941501 0.000000 0.000000 0.000000 1.483006 -1.689056 6.686611 -9.568655 -4.586119 -0.383609 -54.145447 -36.730971 -3.717219 144.276463 -79.331752 -129.120806 0.000000 0.000000 0.000000 -2.813010 -0.026901 5.973403 28.735118 6.082995 4.868152 42.107423 29.427689 -13.326450 -175.293731 55.737540 173.332634 0.000000 0.000000 0.000000 
-7.537908 60.853497 14.274423 -179.995511 -5.868254 179.984473 1.999087 -6.491608 -1.717694 -2.547714 6.791838 -82.082065 8.877257 1.563551 77.820341 -3.677994 -9.981277 -5.918934 0.000000 0.000000 0.000000 0.929312 -2.054826 2.319091 4.501050 -15.914044 -76.598051 1.526761 1.823208 87.832155 2.288045 6.699905 -13.442226 0.000000 0.000000 0.000000 2.712751 0.039936 -10.806169 0.805792 1.029263 -1.617428 -0.110810 -2.855089 7.508457 0.016548 0.009807 0.014807 -0.744015 -2.144756 10.793674 0.177595 -3.793857 5.087229 0.000000 0.000000 0.000000 1.433166 -1.706264 6.558807 -9.529598 -4.634297 -0.483171 -54.264702 -36.199200 -3.807134 143.204724 -79.005707 -127.859079 0.000000 0.000000 0.000000 -2.847147 -0.022727 5.846020 28.691586 5.844951 4.902967 42.260549 29.513961 -12.693002 -175.469281 55.780171 173.302007 0.000000 0.000000 0.000000 
-7.615206 60.896408 13.812850 -179.981727 -6.005993 -179.978394 1.956106 -6.659979 -1.425429 -2.032073 7.062865 -81.001297 8.379040 1.044693 81.638089 -3.817856 -9.816965 -6.626177 0.000000 0.000000 0.000000 0.876653 -2.433416 2.692215 4.026588 -16.412921 -77.431505 1.795159 1.912866 90.495908 1.978275 7.006130 -14.558205 0.000000 0.000000 0.000000 2.633912 -0.177674 -11.018220 0.640762 1.207770 -1.725102 -0.115840 -2.859966 7.418993 -0.011325 -0.003765 0.030022 -0.716836 -2.097173 10.689808 0.198389 -4.010419 5.154808 0.000000 0.000000 0.000000 1.437161 -1.684522 6.487249 -9.444983 -4.746838 -0.601205 -54.548049 -35.720476 -3.941788 142.593709 -78.787181 -127.069686 0.000000 0.000000 0.000000 -2.824094 -0.076095 5.762010 28.616515 5.723293 4.881743 42.641896 29.483980 -11.968701 -175.666537 55.976095 173.224061 0.000000 0.000000 0.000000 
-7.785506 60.987793 13.361166 179.996849 -6.056717 -179.931785 1.895009 -6.702735 -1.146752 -1.681852 7.255519 -80.099971 7.920046 0.587674 85.733928 -3.857511 -9.763392 -7.542622 0.000000 0.000000 0.000000 0.803358 -2.621829 3.053363 3.763049 -16.839162 -78.335160 1.911072 1.760875 93.706534 1.632653 7.301843 -15.746094 0.000000 0.000000 0.000000 2.564539 -0.316110 -11.129264 0.495257 1.398433 -1.765458 -0.128869 -2.844765 7.319176 -0.014871 0.007112 -0.047035 -0.729707 -2.046595 10.686469 0.211075 -4.233683 5.211304 0.000000 0.000000 0.000000 1.433005 -1.718328 6.448662 -9.397934 -4.868225 -0.645921 -54.770262 -35.353991 -4.128419 141.720046 -78.606687 -126.082300 0.000000 0.000000 0.000000 -2.832504 -0.054657 5.749148 28.513000 5.571482 4.989203 42.871031 29.628083 -11.462312 -175.787868 56.307000 173.159707 0.000000 0.000000 0.000000 
-8.017472 61.132828 13.018795 179.979528 -6.090025 179.981645 1.823661 -6.600173 -0.829486 -1.435286 7.314183 -79.319677 7.515855 0.227118 89.891484 -3.758744 -9.804384 -8.657544 0.000000 0.000000 0.000000 0.747675 -2.752391 3.343193 3.957435 -17.111519 -79.259810 1.927792 1.732651 97.046729 1.218101 7.484823 -16.779125 0.000000 0.000000 0.000000 2.526208 -0.371750 -11.008066 0.384043 1.528092 -1.722015 -0.123447 -2.860503 7.240984 0.028035 -0.007669 -0.023778 -0.800759 -2.170863 10.464889 0.167505 -4.401746 5.212023 0.000000 0.000000 0.000000 1.353309 -1.640473 6.238101 -9.313252 -5.018443 -0.729683 -55.061358 -35.095786 -4.167438 140.710271 -78.456375 -124.973460 0.000000 0.000000 0.000000 -2.897129 0.014992 5.584156 28.378094 5.534786 5.065197 43.017945 29.815384 -11.182397 -175.898312 56.742729 173.061776 0.000000 0.000000 0.000000 
-8.232415 61.313122 12.822027 -179.983804 -6.123778 179.955144 1.807811 -6.364562 -0.592575 -1.309963 7.302008 -78.802891 7.117724 -0.158092 93.916071 -3.480276 -9.893311 -9.982001 0.000000 0.000000 0.000000 0.733955 -2.709417 3.593899 4.220514 -17.187765 -80.116452 1.719528 1.446483 100.188807 0.847863 7.645045 -17.433366 0.000000 0.000000 0.000000 2.546446 -0.215388 -10.764535 0.289097 1.655413 -1.637813 -0.153859 -2.836425 7.111733 -0.018237 0.008224 -0.016228 -0.753797 -2.136116 10.285824 0.232585 -4.708017 5.165917 0.000000 0.000000 0.000000 1.392074 -1.665132 6.137603 -9.210671 -5.288782 -0.759748 -55.185985 -35.062537 -4.248550 139.737105 -78.440228 -123.981648 0.000000 0.000000 0.000000 -2.851667 -0.072380 5.434752 28.231194 5.438427 5.031237 43.115371 30.002709 -10.779816 -175.640172 57.152663 173.269728 0.000000 0.000000 0.000000 
-8.441262 61.501526 12.702353 179.948355 -6.141987 -179.997792 1.699292 -6.114427 -0.402079 -1.184623 7.278346 -78.540625 6.818480 -0.407905 97.613232 -3.132211 -10.063974 -11.388309 0.000000 0.000000 0.000000 0.655582 -2.631827 3.665542 4.570869 -17.088484 -80.884234 1.526703 1.149117 102.999560 0.795930 8.125853 -17.599956 0.000000 0.000000 0.000000 2.496550 -0.028295 -10.448694 0.154600 1.716318 -1.552143 -0.182847 -2.836851 7.007081 -0.000303 0.019102 -0.023198 -0.767897 -2.088886 10.099055 0.203770 -4.919036 5.102057 0.000000 0.000000 0.000000 1.357445 -1.729930 5.970554 -8.980550 -5.559876 -0.823882 -55.411371 -35.042764 -4.196717 138.841080 -78.485834 -123.102876 0.000000 0.000000 0.000000 -2.905649 -0.032824 5.298951 28.161777 5.376174 5.178061 42.946505 30.294683 -10.959663 -175.642098 57.465387 173.198776 0.000000 0.000000 0.000000 
-8.598505 61.676403 12.612194 179.950814 -6.175510 -179.974296 1.666347 -5.944869 -0.333479 -1.008565 7.256684 -78.394323 6.566454 -0.657327 100.918497 -2.755024 -10.225054 -12.725786 0.000000 0.000000 0.000000 0.578975 -2.609478 3.611591 4.893873 -16.750571 -81.448585 1.324899 0.778352 105.239282 0.908147 8.808473 -17.379997 0.000000 0.000000 0.000000 2.465147 0.079770 -10.196699 0.070914 1.688904 -1.348553 -0.204836 -2.871209 6.910367 0.042118 -0.006049 0.009431 -0.750206 -1.759346 9.905921 0.271888 -5.223175 5.048748 0.000000 0.000000 0.000000 1.357972 -1.625047 5.844848 -8.824080 -5.914742 -0.708975 -55.433088 -35.276937 -4.102853 137.973660 -78.507123 -122.346447 0.000000 0.000000 0.000000 -2.895028 0.010579 5.150589 28.052333 5.373586 5.128056 42.909916 30.429459 -10.802150 -175.458872 57.705755 173.303182 0.000000 0.000000 0.000000 
-8.689487 61.809433 12.505910 179.982315 -6.159208 -179.989172 1.590797 -5.779878 -0.370252 -0.779657 7.247303 -78.267684 6.368233 -0.841331 103.697851 -2.471089 -10.427470 -13.796799 0.000000 0.000000 0.000000 0.482713 -2.625561 3.452155 5.089491 -16.178582 -81.735112 0.969567 0.471234 106.741247 0.764501 9.107454 -16.998200 0.000000 0.000000 0.000000 2.379355 0.120253 -10.092801 0.009129 1.696188 -1.088171 -0.140074 -2.866916 6.841657 0.017415 0.004425 0.022924 -0.746431 -2.212800 9.753719 0.140551 -5.339714 5.022805 0.000000 0.000000 0.000000 1.347709 -1.635426 5.726834 -8.582121 -6.282284 -0.765546 -55.556530 -35.523230 -3.931990 137.845266 -78.588669 -122.363768 0.000000 0.000000 0.000000 -2.895175 -0.081930 5.030603 28.047253 5.404504 5.182970 42.769815 30.623853 -10.794679 -175.570914 57.800571 173.141402 0.000000 0.000000 0.000000 
